<svg version="1.1" xmlns="http://www.w3.org/2000/svg" xmlns:xlink="http://www.w3.org/1999/xlink" width="1914" height="2169"><desc>title%20Construire%20un%20batiment%0A%0A%0A%0Aparticipant%20Utilisateur%0A%0Aentity%20Vue%20%23purple%0Aentity%20Action(vue)%20%23green%0A%0A%0A%0A%0Acontrol%20Controleur%20%23yellow%0A%0Adatabase%20%23blue%3A1%20Database%20%23red%0A%0Aentity%20Partie(modele)%20%23blue%0Aactor%20Joueur%20%23blue%0A%0A%0AUtilisateur-%3EVue%3AButton-1%20sur%20personnage%0AVue-%3EVue%3Acreer_cadres%20(init)%0AVue-%3EVue%3Acreer_cadre_jeu%0AVue-%3EVue%3Acreer_aire_jeu()%0AVue-%3EVue%3Aconnecter_event()%0A%0AVue-%3EVue%3A%22canvas.bind%20%3CButton-3%3E%22%2C%20%5Cnself.construire_batiment)%0AUtilisateur-%3EVue%3A%3CButton-3%3E%0A%0AVue-%3EAction(vue)%3Aconstruire_batiment%20%0AAction(vue)-%3EControleur%3Aconstruire_batiment%3A%5Cnappend%20action%20a%20%5B%5Dactions_requises%0AControleur-%3EControleur%3Aboucler_sur_jeu()%5Cn...%0Anote%20over%20Controleur%3A%20recursivit%C3%A9%20de%20boucler_sur_jeu()%0AControleur-%3EDatabase%3Atry%3A%20appeler_serveur%5Cn(...%20actions_requises%20...%20)%0ADatabase-%23redxControleur%3Aan%20error%20ocurred%3A%20e%5Cnon_joue%3D0%5Cn(notre%20tour%20est%20fini)%0ADatabase--%3EControleur%3AATTENTION%0AControleur-%3EControleur%3Aon_joue%3D0%20(tour%20fini)%0Anote%20over%20Controleur%3Asi%20try%20marche%3A%0ADatabase--%3EControleur%3A%7BJSON%7D%0AControleur-%3EPartie(modele)%3A%5Cnmon_dict%20%3D%20JSON%7B%7D%5Cnajouter_actions_a_faire(mon_dict)%0APartie(modele)-%3EPartie(modele)%3A%20self.actions_a_faire%3A%0Anote%20over%20Partie(modele)%3Aappend%20actions%20courantes%0AControleur-%3EPartie(modele)%3Ajouer_prochain_coup%0APartie(modele)-%3EJoueur%3Aactions%3A%20%22construirebatiment%22%0Anote%20over%20Joueur%3Aself.construire_batiment%20%0Anote%20over%20Joueur%3ASiteConstruction()%0APartie(modele)-%3EJoueur%3Ajouer_prochain_coup()%0AJoueur-%3EPersos%3Aself.persos%5Bj%5D%5Bi%5D.jouer_prochain_coup()%0Anote%20over%20Persos%3A%20self.etats_et_actions%20%3D%20%22construirebatiment%22%0Anote%20over%20Persos%3Aself.construire_batiment()%0Anote%20over%20Partie(modele)%3A%20self.faire_action_partie()%5Cnproduire_action()%0AControleur-%3EVue%3Aafficher_jeu()%0A%0A%0A%0A%0A%0A%0A</desc><defs/><g><g/><g/><g/><g/><g/><g/><g/><g/><g/><g/><g/><g/><g/><g/><g/><g/><g/><g/><g/><g/><g/><g/><g/><g/><g/><g/><g/><g/><g/><g/><g/><g/><g/><g/><g/><g/><g/><g/><g/><g><rect fill="white" stroke="none" x="0" y="0" width="1914" height="2169"/></g><g><text fill="black" stroke="none" font-family="sans-serif" font-size="18pt" font-style="normal" font-weight="normal" text-decoration="normal" x="835.8012608194999" y="26.3876361" text-anchor="start" dominant-baseline="alphabetic" xml:space="preserve">Construire un batiment</text></g><g/><g><path fill="none" stroke="black" paint-order="fill stroke markers" d=" M 63.449341729 139.67855375599999 L 63.449341729 2169.767357715999" stroke-miterlimit="10" stroke-width="1.4659797833333332" stroke-dasharray="13.532121076923076,5.863919133333333"/><path fill="none" stroke="black" paint-order="fill stroke markers" d=" M 286.47788229566663 139.67855375599999 L 286.47788229566663 2169.767357715999" stroke-miterlimit="10" stroke-width="1.4659797833333332" stroke-dasharray="13.532121076923076,5.863919133333333"/><path fill="none" stroke="black" paint-order="fill stroke markers" d=" M 507.98725002899994 139.67855375599999 L 507.98725002899994 2169.767357715999" stroke-miterlimit="10" stroke-width="1.4659797833333332" stroke-dasharray="13.532121076923076,5.863919133333333"/><path fill="none" stroke="black" paint-order="fill stroke markers" d=" M 802.1798530956667 139.67855375599999 L 802.1798530956667 2169.767357715999" stroke-miterlimit="10" stroke-width="1.4659797833333332" stroke-dasharray="13.532121076923076,5.863919133333333"/><path fill="none" stroke="black" paint-order="fill stroke markers" d=" M 1019.8255811623333 139.67855375599999 L 1019.8255811623333 2169.767357715999" stroke-miterlimit="10" stroke-width="1.4659797833333332" stroke-dasharray="13.532121076923076,5.863919133333333"/><path fill="none" stroke="black" paint-order="fill stroke markers" d=" M 1164.2382889456667 139.67855375599999 L 1164.2382889456667 2169.767357715999" stroke-miterlimit="10" stroke-width="1.4659797833333332" stroke-dasharray="13.532121076923076,5.863919133333333"/><path fill="none" stroke="black" paint-order="fill stroke markers" d=" M 1413.7121420123333 139.67855375599999 L 1413.7121420123333 2169.767357715999" stroke-miterlimit="10" stroke-width="1.4659797833333332" stroke-dasharray="13.532121076923076,5.863919133333333"/><path fill="none" stroke="black" paint-order="fill stroke markers" d=" M 1727.428182579 139.67855375599999 L 1727.428182579 2169.767357715999" stroke-miterlimit="10" stroke-width="1.4659797833333332" stroke-dasharray="13.532121076923076,5.863919133333333"/></g><g><path fill="none" stroke="none"/><g><path fill="white" stroke="black" paint-order="fill stroke markers" d=" M 8.795878699999996 92.18080877599999 L 118.10280475799999 92.18080877599999 L 118.10280475799999 139.67855375599999 L 8.795878699999996 139.67855375599999 L 8.795878699999996 92.18080877599999 Z" stroke-miterlimit="10" stroke-width="2.814681184" stroke-dasharray=""/></g><g><g/><text fill="black" stroke="none" font-family="sans-serif" font-size="12pt" font-style="normal" font-weight="normal" text-decoration="normal" x="27.882935478999997" y="122.08679635600001" text-anchor="start" dominant-baseline="alphabetic" xml:space="preserve">Utilisateur</text></g><g><path fill="purple" stroke="black" paint-order="fill stroke markers" d=" M 312.6016420346666 86.79773101159998 A 26.123759739 26.123759739 0 1 1 312.60162897278786 86.77160725621492 M 258.85882317766664 115.31396975699997 L 314.0969414136666 115.31396975699997" stroke-miterlimit="10" stroke-width="2.990598758" stroke-dasharray=""/></g><g><g/><text fill="black" stroke="none" font-family="sans-serif" font-size="12pt" font-style="normal" font-weight="normal" text-decoration="normal" x="272.54038229566663" y="134.401026536" text-anchor="start" dominant-baseline="alphabetic" xml:space="preserve">Vue</text></g><g><path fill="green" stroke="black" paint-order="fill stroke markers" d=" M 534.1110097679999 86.79773101159998 A 26.123759739 26.123759739 0 1 1 534.1109967061211 86.77160725621492 M 480.36819091099994 115.31396975699997 L 535.6063091469999 115.31396975699997" stroke-miterlimit="10" stroke-width="2.990598758" stroke-dasharray=""/></g><g><g/><text fill="black" stroke="none" font-family="sans-serif" font-size="12pt" font-style="normal" font-weight="normal" text-decoration="normal" x="467.52631252899994" y="134.401026536" text-anchor="start" dominant-baseline="alphabetic" xml:space="preserve">Action(vue)</text></g><g><path fill="yellow" stroke="black" paint-order="fill stroke markers" d=" M 828.3036128346666 89.19021001799997 A 26.123759739 26.123759739 0 1 1 828.3035997727878 89.16408626261492 M 798.6615016156667 63.06645027899997 L 809.2165560556667 54.27057157899998 M 798.6615016156667 63.06645027899997 L 809.2165560556667 71.86232897899997" stroke-miterlimit="10" stroke-width="2.990598758" stroke-dasharray=""/></g><g><g/><text fill="black" stroke="none" font-family="sans-serif" font-size="12pt" font-style="normal" font-weight="normal" text-decoration="normal" x="764.8282905956667" y="134.401026536" text-anchor="start" dominant-baseline="alphabetic" xml:space="preserve">Controleur</text></g><g><path fill="red" stroke="blue" paint-order="fill stroke markers" d=" M 994.1416153583333 105.19870925199999 L 994.1416153583333 68.25601871199999 L 1045.5095469663333 68.25601871199999 L 1045.5095469663333 105.19870925199999" stroke-miterlimit="10" stroke-width="2.990598758" stroke-dasharray=""/><path fill="red" stroke="blue" paint-order="fill stroke markers" d=" M 1045.5095469663333 66.97182042179999 L 1045.5082627787447 67.08792408555635 L 1045.5044103443965 67.20401613904309 L 1045.4979900485293 67.3200849731516 L 1045.489002533167 67.43611898109519 L 1045.4774486970537 67.55210655956978 L 1045.4633296955633 67.66803610991414 L 1045.4466469405845 67.78389603926989 L 1045.4274021003787 67.8996747617406 L 1045.4055970994136 68.01536069955054 L 1045.3812341181717 68.1309422842023 L 1045.3543155929303 68.24640795763378 L 1045.3248442155198 68.3617461733738 L 1045.2928229330535 68.47694539769695 L 1045.2582549476324 68.59199411077678 L 1045.2211437160267 68.70688080783783 L 1045.1814929493287 68.82159400030618 L 1045.1393066125818 68.93612221695814 L 1045.0945889243844 69.0504540050675 L 1045.0473443564683 69.16457793155072 L 1044.997577633251 69.27848258411025 L 1044.945293731363 69.39215657237577 L 1044.8904978791513 69.50558852904317 L 1044.8331955561553 69.61876711101131 L 1044.7733924925594 69.73168100051632 L 1044.7110946686203 69.84431890626333 L 1044.6463083140684 69.95666956455563 L 1044.5790399074851 70.06872174042103 L 1044.5092961756554 70.18046422873529 L 1044.4370840928939 70.29188585534273 L 1044.3624108803488 70.40297547817353 L 1044.2852840052792 70.51372198835797 L 1044.2057111803083 70.62411431133734 L 1044.1237003626525 70.73414140797132 L 1044.0392597533248 70.84379227564195 L 1043.952397796316 70.95305594935381 L 1043.8631231777495 71.06192150283061 L 1043.7714448250126 71.1703780496077 L 1043.6773719058644 71.27841474412082 L 1043.5809138275183 71.38602078279051 L 1043.4820802357017 71.4931854051026 L 1043.3808810136914 71.59989789468413 L 1043.2773262813253 71.7061475803751 L 1043.1714263939903 71.81192383729548 L 1043.0631919415869 71.9172160879077 L 1042.9526337474704 72.02201380307447 L 1042.8397628673677 72.12630650311159 L 1042.7245905882728 72.23008375883597 L 1042.607128427318 72.33333519260853 L 1042.4873881306212 72.43605047937191 L 1042.3653816721123 72.53821934768304 L 1042.2411212523355 72.63983158074024 L 1042.1146192972294 72.74087701740487 L 1041.9858884568837 72.84134555321748 L 1041.8549416042756 72.94122714140819 L 1041.7217918339811 73.04051179390143 L 1041.586452460866 73.13918958231469 L 1041.4489370187553 73.23725063895135 L 1041.309259259078 73.33468515778748 L 1041.1674331494944 73.43148339545236 L 1041.0234728724968 73.52763567220293 L 1040.877392823993 73.6231323728916 L 1040.729207611866 73.71796394792793 L 1040.5789320545139 73.8121209142334 L 1040.4265811793668 73.90559385618985 L 1040.2721702213855 73.998373426581 L 1040.1157146215373 74.09045034752711 L 1039.9572300252512 74.18181541141281 L 1039.7967322808554 74.27245948180787 L 1039.6342374379901 74.36237349438078 L 1039.4697617460047 74.45154845780519 L 1039.3033216523309 74.53997545465909 L 1039.1349338008392 74.62764564231648 L 1038.964615030175 74.71455025383165 L 1038.7923823720732 74.80068059881587 L 1038.618253049656 74.88602806430642 L 1038.4422444757104 74.97058411562787 L 1038.2643742509474 75.05434029724555 L 1038.0846601622413 75.13728823361109 L 1037.903120180851 75.21941962999999 L 1037.7197724606233 75.30072627334106 L 1037.5346353361774 75.38120003303769 L 1037.347727321072 75.46083286178099 L 1037.159067105952 75.53961679635444 L 1036.9686735566827 75.61754395843025 L 1036.7765657124594 75.69460655535714 L 1036.5827627839071 75.77079688093964 L 1036.3872841511568 75.84610731620869 L 1036.190149361909 75.9205303301835 L 1035.9913781294783 75.99405848062472 L 1035.7909903308225 76.06668441477855 L 1035.5890060045542 76.13840087011211 L 1035.3854453489378 76.20920067503964 L 1035.1803287198693 76.27907674963963 L 1034.9736766288406 76.34802210636286 L 1034.7655097408888 76.4160298507311 L 1034.5558488725287 76.48309318202661 L 1034.344714989673 76.54920539397213 L 1034.1321292055338 76.61435987540155 L 1033.9181127785123 76.67855011092104 L 1033.702687110073 76.74176968156053 L 1033.485873742603 76.80401226541565 L 1033.2676943572585 76.86527163827986 L 1033.0481707717963 76.92554167426694 L 1032.827324938392 76.98481634642351 L 1032.6051789414448 77.04308972733178 L 1032.3817549953694 77.10035598970217 L 1032.157075442374 77.15660940695618 L 1031.9311627502268 77.21184435379898 L 1031.704039510009 77.26605530678191 L 1031.4757284338548 77.31923684485484 L 1031.246252352682 77.37138364990828 L 1031.0156342139073 77.42249050730518 L 1030.7838970791527 77.4725523064024 L 1030.551064121938 77.52156404106174 L 1030.3171586253654 77.56952081015058 L 1030.0822039797895 77.61641781803196 L 1029.846223680479 77.6622503750442 L 1029.609241325267 77.70701389796976 L 1029.3712806121919 77.75070391049368 L 1029.1323653371264 77.7933160436511 L 1028.892519391399 77.83484603626422 L 1028.6517667594046 77.87528973536838 L 1028.4101315162056 77.91464309662739 L 1028.167637825125 77.9529021847379 L 1027.9243099353298 77.99006317382297 L 1027.6801721794063 78.02612234781469 L 1027.4352489709263 78.0610761008257 L 1027.189564802007 78.09492093750981 L 1026.9431442408604 78.12765347341158 L 1026.6960119293371 78.15927043530469 L 1026.4481925804625 78.18976866151928 L 1026.199710975965 78.21914510225817 L 1025.950591963798 78.24739681990175 L 1025.7008604556547 78.27452098930179 L 1025.4505414244782 78.30051489806398 L 1025.199659901963 78.32537594681908 L 1024.9482409760521 78.34910164948295 L 1024.696309788429 78.37168963350508 L 1024.443891532002 78.39313764010592 L 1024.1910114483867 78.41344352450264 L 1023.9376948253805 78.43260525612375 L 1023.6839669944349 78.45062091881205 L 1023.4298533281212 78.46748871101629 L 1023.1753792375946 78.48320694597129 L 1022.920570170052 78.49777405186667 L 1022.6654516061877 78.51118857200397 L 1022.4100490576457 78.52344916494236 L 1022.1543880644676 78.53455460463276 L 1021.8984941925403 78.54450378054045 L 1021.6423930310372 78.55329569775614 L 1021.3861101898613 78.56092947709544 L 1021.129671297083 78.56740435518677 L 1020.8731019963781 78.57271968454769 L 1020.6164279444625 78.57687493364975 L 1020.359674808528 78.57986968697145 L 1020.1028682636737 78.58170364504 L 1019.8460339903405 78.58237662446106 L 1019.5891976717415 78.58188855793732 L 1019.3323849912946 78.58023949427498 L 1019.0756216300538 78.57742959837903 L 1018.8189332641413 78.57345915123673 L 1018.5623455621796 78.56832854988951 L 1018.3058841827253 78.56203830739318 L 1018.0495747717026 78.5545890527668 L 1017.793442959839 78.54598153092958 L 1017.5375143601021 78.53621660262655 L 1017.2818145651388 78.5252952443424 L 1017.0263691447153 78.51321854820387 L 1016.771203643161 78.4999877218705 L 1016.5163435768133 78.48560408841388 L 1016.2618144314664 78.4700690861854 L 1016.0076416598229 78.45338426867232 L 1015.753850678948 78.4355513043425 L 1015.5004668677283 78.41657197647748 L 1015.2475155643338 78.39644818299428 L 1014.9950220636841 78.37518193625543 L 1014.7430116149188 78.35277536286792 L 1014.4915094188727 78.32923070347039 L 1014.240540625556 78.30455031250918 L 1013.9901303316389 78.2787366580028 L 1013.7403035779417 78.2517923212952 L 1013.4910853469322 78.2237199967976 L 1013.2425005602254 78.19452249171906 L 1012.9945740760928 78.16420272578573 L 1012.7473306869765 78.13276373094897 L 1012.5007951170091 78.10020865108203 L 1012.2549920195424 78.0665407416658 L 1012.0099459746812 78.03176336946316 L 1011.7656814868255 77.99588001218234 L 1011.522222982221 77.95889425812916 L 1011.2795948065151 77.92080980584822 L 1011.037821222323 77.881630463753 L 1010.7969264068018 77.84136014974506 L 1010.5569344492325 77.80000289082224 L 1010.3178693486104 77.75756282267598 L 1010.0797550112468 77.71404418927773 L 1009.8426152483768 77.66945134245454 L 1009.606473773779 77.62378874145395 L 1009.3713542014042 77.57706095249802 L 1009.1372800430137 77.52927264832667 L 1008.9042747058281 77.48042860773052 L 1008.6723614901873 77.43053371507293 L 1008.4415635872192 77.37959295980157 L 1008.2119040765222 77.32761143594954 L 1007.9834059238556 77.27459434162587 L 1007.7560919788443 77.22054697849586 L 1007.5299849726936 77.16547475125074 L 1007.3051075159156 77.10938316706736 L 1007.0814820960685 77.0522778350574 L 1006.8591310755079 76.99416446570646 L 1006.6380766891508 76.93504887030305 L 1006.4183410422513 76.87493696035746 L 1006.1999461081913 76.81383474701059 L 1005.9829137262819 76.75174834043284 L 1005.7672655995807 76.68868394921314 L 1005.5530232927206 76.62464787973806 L 1005.3402082297537 76.5596465355612 L 1005.1288416920088 76.49368641676277 L 1004.9189448159638 76.42677411929971 L 1004.7105385911312 76.358916334346 L 1004.50364385796 76.2901198476236 L 1004.298281305751 76.22039153872383 L 1004.0944714705881 76.14973838041949 L 1003.8922347332854 76.07816743796754 L 1003.6915913173477 76.00568586840255 L 1003.4925612869496 75.9323009198211 L 1003.2951645449283 75.8580199306569 L 1003.0994208307933 75.78285032894695 L 1002.9053497187532 75.70679963158878 L 1002.7129706157572 75.62987544358876 L 1002.5223027595554 75.55208545730159 L 1002.3333652167746 75.47343745166106 L 1002.1461768810115 75.3939392914022 L 1001.9607564709437 75.31359892627479 L 1001.7771225284578 75.2324243902484 L 1001.5952934167949 75.15042380070896 L 1001.4152873187147 75.06760535764712 L 1001.2371222346771 74.98397734283817 L 1001.0608159810419 74.89954811901389 L 1000.8863861882876 74.8143261290263 L 1000.713850299248 74.72831989500338 L 1000.5432255673684 74.64153801749687 L 1000.3745290549797 74.5539891746222 L 1000.2077776315925 74.46568212119071 L 1000.0429879722103 74.37662568783415 L 999.8801765556617 74.28682878012162 L 999.7193596629527 74.19630037766909 L 999.5605533756384 74.10504953324134 L 999.4037735742154 74.0130853718468 L 999.249035936533 73.92041708982494 L 999.0963559362262 73.82705395392676 L 998.9457488411676 73.73300530038806 L 998.7972297119416 73.63828053399578 L 998.6508134003368 73.54288912714766 L 998.5065145478627 73.44684061890487 L 998.3643475842841 73.3501446140382 L 998.2243267261791 73.25281078206757 L 998.0864659755168 73.15484885629505 L 997.9507791182573 73.05626863283157 L 997.8172797229732 72.95707996961737 L 997.6859811394928 72.85729278543607 L 997.5568964975652 72.75691705892295 L 997.4300387055468 72.65596282756702 L 997.3054204491112 72.5544401867073 L 997.1830541899803 72.45235928852324 L 997.0629521646779 72.34973034101961 L 996.9451263833064 72.24656360700563 L 996.8295886283458 72.14286940306874 L 996.7163504534753 72.03865809854291 L 996.6054231824182 71.93394011447177 L 996.4968179078089 71.82872592256643 L 996.3905454900846 71.72302604415843 L 996.2866165563983 71.61685104914753 L 996.1850414995569 71.51021155494473 L 996.0858304769814 71.4031182254106 L 995.9889934096913 71.29558176978884 L 995.8945399813127 71.1876129416354 L 995.8024796371099 71.07922253774314 L 995.7128215830403 70.9704213970621 L 995.6255747848347 70.86122039961568 L 995.5407479671004 70.75163046541265 L 995.4583496124482 70.64166255335508 L 995.378387960645 70.53132766014255 L 995.3008710077895 70.42063681917243 L 995.2258065055122 70.30960109943658 L 995.1532019602008 70.19823160441445 L 995.0830646322495 70.0865394709627 L 995.0154015353323 69.97453586820164 L 994.9502194357029 69.86223199639821 L 994.8875248515167 69.74963908584596 L 994.82732405218 69.63676839574217 L 994.7696230577224 69.52363121306175 L 994.7144276381954 69.41023885142872 L 994.6617433130949 69.29660264998472 L 994.6115753508096 69.18273397225522 L 994.5639287680938 69.0686442050131 L 994.5188083295661 68.95434475714 L 994.4762185472329 68.83984705848547 L 994.4361636800367 68.72516255872397 L 994.398647733431 68.61030272620987 L 994.3636744589791 68.49527904683073 L 994.3312473539793 68.38010302285863 L 994.3013696611151 68.2647861718 L 994.2740443681311 68.14934002524383 L 994.2492742075335 68.03377612770858 L 994.2270616563179 67.9181060354877 L 994.2074089357209 67.80234131549402 L 994.1903180109982 67.68649354410306 L 994.175790591228 67.57057430599544 L 994.16382812914 67.45459519299835 L 994.1544318209707 67.33856780292646 L 994.147602606343 67.22250373842208 L 994.1433411681726 67.10641460579494 L 994.1416479325998 66.99031201386155 L 994.1425230689467 66.87420757278437 L 994.1459664897006 66.75811289291076 L 994.1519778505221 66.64203958361193 L 994.1605565502803 66.52599925212212 L 994.1717017311121 66.41000350237775 L 994.1854122785089 66.29406393385715 L 994.2016868214274 66.17819214042055 L 994.2205237324268 66.06239970915072 L 994.2419211278317 65.94669821919432 L 994.2658768679204 65.8310992406039 L 994.2923885571389 65.71561433318102 L 994.3214535443402 65.60025504532017 L 994.35306892305 65.48503291285398 L 994.3872315317568 65.36995945789971 L 994.423937954228 65.25504618770695 L 994.4631845198521 65.14030459350695 L 994.5049673040052 65.02574614936354 L 994.5492821284436 64.91138231102563 L 994.5961245617219 64.79722451478179 L 994.6454899196358 64.68328417631649 L 994.6973732656907 64.56957268956862 L 994.7517694115951 64.45610142559212 L 994.8086729177797 64.3428817314188 L 994.8680780939416 64.22992492892377 L 994.9299789996124 64.1172423136931 L 994.9943694447531 64.00484515389444 L 995.0612429903731 63.89274468915009 L 995.1305929491734 63.78095212941312 L 995.2024123862159 63.66947865384635 L 995.2766941196168 63.558335409704426 L 995.3534307212645 63.447533511219156 L 995.4326145175631 63.337084038488044 L 995.5142375901987 63.226998036366325 L 995.5982917769321 63.11728651336247 L 995.6847686724147 63.00796044053737 L 995.7736596290291 62.899030750407185 L 995.8649557577535 62.790508335850156 L 995.9586479290513 62.682404049017315 L 996.0547267737834 62.57472870024724 L 996.1531826841453 62.4674930569851 L 996.2540058146282 62.36070784270584 L 996.357186083003 62.25438373584191 L 996.4627131713286 62.148531368715396 L 996.5705765269844 62.04316132647479 L 996.6807653637246 61.938284146036516 L 996.7932686627574 61.83391031503122 L 996.9080751738467 61.73005027075502 L 997.0251734164369 61.6267143991258 L 997.1445516808016 61.52391303364461 L 997.2661980292135 61.42165645436233 L 997.3901002971392 61.31995488685167 L 997.5162460944554 61.21881850118463 L 997.6446228066873 61.1182574109155 L 997.7752175962706 61.018281672069506 L 997.9080174038353 60.91890128213721 L 998.0430089495113 60.82012617907481 L 998.1801787342565 60.72196624031029 L 998.3195130412068 60.62443128175571 L 998.4609979370475 60.52753105682567 L 998.604619273407 60.431275255461905 L 998.7503626882713 60.33567350316434 L 998.8982136074203 60.24073536002853 L 999.0481572458855 60.14647031978968 L 999.2001786094278 60.05288780887326 L 999.3542624960376 59.959997185452366 L 999.5103934974546 59.86780773851195 L 999.668556000709 59.77632868691987 L 999.828734189682 59.68556917850505 L 999.9909120466883 59.59553828914271 L 1000.1550733540773 59.50624502184675 L 1000.321201695855 59.41769830586949 L 1000.489280459326 59.32990699580875 L 1000.6592928367536 59.24287987072236 L 1000.8312218270419 59.15662563325033 L 1001.0050502374352 59.0711529087445 L 1001.1807606852373 58.986470244406114 L 1001.3583355995497 58.90258610843103 L 1001.5377572230291 58.81950888916295 L 1001.7190076136627 58.737246894254554 L 1001.9020686465623 58.65580834983679 L 1002.0869220157773 58.57520139969624 L 1002.2735492361248 58.49543410446074 L 1002.4619316450384 58.41651444079334 L 1002.6520504044339 58.33845030059465 L 1002.843886502594 58.26124949021362 L 1003.0374207560687 58.18491972966697 L 1003.232633811594 58.10946865186714 L 1003.4295061480269 58.03490380185903 L 1003.6280180782979 57.96123263606552 L 1003.8281497513794 57.88846252154177 L 1004.0298811542708 57.816600735238616 L 1004.2331921140001 57.74565446327479 L 1004.4380622996405 57.67563080021837 L 1004.6444712243442 57.60653674837731 L 1004.852398247391 57.53837921709922 L 1005.0618225762515 57.47116502208042 L 1005.2727232686676 57.40490088468441 L 1005.4850792347459 57.3395934312697 L 1005.6988692390663 57.27524919252721 L 1005.914071902807 57.21187460282721 L 1006.1306657058807 57.14947599957584 L 1006.3486289890876 57.088059622581426 L 1006.5679399562811 57.02763161343051 L 1006.7885766765472 56.96819801487362 L 1007.0105170863978 56.9097647702211 L 1007.2337389919768 56.85233772274873 L 1007.4582200712796 56.79592261511338 L 1007.6839378763855 56.74052508877882 L 1007.9108698357019 56.6861506834515 L 1008.1389932562221 56.63280483652666 L 1008.3682853257942 56.58049288254453 L 1008.5987231154021 56.52922005265691 L 1008.8302835814591 56.47899147410408 L 1009.0629435681115 56.42981216970201 L 1009.2966798095543 56.38168705734017 L 1009.5314689323585 56.334620949489704 L 1009.7672874578074 56.28861855272216 L 1010.0041118042446 56.24368446723889 L 1010.2419182894332 56.199823186410995 L 1010.4806831329228 56.157039096329996 L 1010.7203824584279 56.11533647536926 L 1010.9609922962157 56.07471949375613 L 1011.202488585503 56.035192213154914 L 1011.4448471768621 55.99675858626073 L 1011.6880438346359 55.959422456404255 L 1011.9320542393612 55.923187557167346 L 1012.1768539902008 55.88805751200974 L 1012.4224186073837 55.85403583390668 L 1012.6687235346528 55.82112592499761 L 1012.9157441417208 55.78933107624601 L 1013.1634557267325 55.758654467110254 L 1013.4118335187361 55.72909916522569 L 1013.6608526801592 55.70066812609789 L 1013.9104883092933 55.67336419280706 L 1014.1607154427835 55.64719009572377 L 1014.411509058125 55.62214845223594 L 1014.6628440761651 55.598241766487035 L 1014.9146953636116 55.57547242912571 L 1015.1670377355456 55.55384271706673 L 1015.4198459579402 55.533354793263264 L 1015.6730947501837 55.51401070649064 L 1015.9267587876082 55.4958123911414 L 1016.180812704021 55.47876166703191 L 1016.4352310942423 55.46286023922039 L 1016.6899885166453 55.44810969783636 L 1016.9450594956998 55.434511517921656 L 1017.2004185245205 55.42206705928295 L 1017.4560400674173 55.41077756635575 L 1017.7118985624492 55.40064416807991 L 1017.9679684239795 55.39166787778682 L 1018.2242240452357 55.38384959309805 L 1018.4806398008691 55.37719009583553 L 1018.737190049518 55.37169005194345 L 1018.9938491363711 55.36735001142162 L 1019.2505913957336 55.36417040827046 L 1019.5073911535936 55.36215156044765 L 1019.7642227301894 55.36129366983628 L 1020.0210604425773 55.3615968222247 L 1020.2778786072001 55.363060987297914 L 1020.5346515424553 55.36568601864066 L 1020.7913535712634 55.369471653751965 L 1021.0479590236354 55.37441751407148 L 1021.3044422392398 55.3805231050173 L 1021.560777569969 55.38778781603543 L 1021.8169393825034 55.39621092066079 L 1022.0729020608753 55.40579157658996 L 1022.3286400090301 55.41652882576533 L 1022.584127653386 55.428421594470926 L 1022.8393394453916 55.44146869343979 L 1023.0942498640804 55.45566881797289 L 1023.3488334186229 55.47102054806961 L 1023.6030646508758 55.48752234856974 L 1023.8569181379278 55.50517256930697 L 1024.1103684946415 55.52396944527395 L 1024.363390376193 55.54391109679874 L 1024.6159584806041 55.56499552973279 L 1024.8680475512756 55.587220635650404 L 1025.1196323795102 55.61058419205949 L 1025.370687807035 55.63508386262389 L 1025.621188728516 55.660717197396956 L 1025.87111009407 55.687481633066575 L 1026.1204269117688 55.715374493211485 L 1026.3691142501384 55.744392988568904 L 1026.6171472406522 55.7745342173135 L 1026.8645010802177 55.8057951653475 L 1027.111151033657 55.83817270660215 L 1027.3570724361807 55.871663603350314 L 1027.6022406958532 55.90626450653023 L 1027.846631296053 55.941971956080394 L 1028.0902197979233 55.97878238128563 L 1028.3329818428174 56.01669210113408 L 1028.5748931547328 56.055697324685354 L 1028.8159295427402 56.095794151449596 L 1029.0560669034014 56.136978571777554 L 1029.2952812231806 56.17924646726151 L 1029.533548580845 56.22259361114713 L 1029.7708451498577 56.267015668756166 L 1030.0071472007592 56.31250819791986 L 1030.2424311035413 56.35906664942321 L 1030.4766733300103 56.40668636745987 L 1030.7098504561382 56.455362590097714 L 1030.941939164407 56.505090449755045 L 1031.172916246139 56.55586497368733 L 1031.402758603819 56.60768108448449 L 1031.6314432534023 56.66053360057863 L 1031.8589473266145 56.71441723676219 L 1032.0852480732383 56.76932660471643 L 1032.3103228633872 56.82525621355034 L 1032.53414918977 56.88220047034963 L 1032.7567046699405 56.940153680736074 L 1032.9779670485361 56.999110049436936 L 1033.1979141995034 57.05906368086447 L 1033.4165241283108 57.120008579705484 L 1033.633774974147 57.1819386515209 L 1033.849645012109 57.244847703355134 L 1034.0641126553726 57.308729444355436 L 1034.2771564573522 57.373577486400926 L 1034.4887551138454 57.439385344741446 L 1034.6988874651627 57.506146438646006 L 1034.907532498244 57.57385409206084 L 1035.1146693487601 57.642501534277045 L 1035.3202773031985 57.712081900607586 L 1035.5243358009348 57.78258823307383 L 1035.7268244362895 57.854013481101276 L 1035.927722960568 57.92635050222464 L 1036.1270112840848 57.99959206280211 L 1036.3246694781742 58.07373083873863 L 1036.520677777181 58.14875941621842 L 1036.715016580439 58.224670292446234 L 1036.9076664542295 58.30145587639771 L 1037.098608133726 58.379108489578456 L 1037.2878225249194 58.45762036679186 L 1037.4752907065283 58.53698365691561 L 1037.660993931891 58.61719042368684 L 1037.8449136308393 58.698232646495725 L 1038.0270314115571 58.7801022211875 L 1038.2073290624176 58.86279096087293 L 1038.3857885538062 58.94629059674695 L 1038.5623920399225 59.03059277891555 L 1038.737121860565 59.115689077230776 L 1038.9099605428971 59.2015709821337 L 1039.080890803195 59.2882299055054 L 1039.2498955485746 59.375657181525774 L 1039.4169578787025 59.46384406754005 L 1039.582061087485 59.55278174493313 L 1039.7451886647386 59.642461320011385 L 1039.9063242978414 59.73287382489204 L 1040.0654518733647 59.82401021839995 L 1040.2225554786835 59.91586138697171 L 1040.377619403568 60.008418145567006 L 1040.530628141755 60.10167123858711 L 1040.681566392498 60.195611340800426 L 1040.8304190620981 60.29022905827503 L 1040.9771712654124 60.385514929318006 L 1041.1218083273425 60.48145942542166 L 1041.2643157843027 60.57805295221634 L 1041.4046793856664 60.67528585042985 L 1041.5428850951903 60.77314839685341 L 1041.6789190924187 60.87163080531391 L 1041.8127677740652 60.97072322765259 L 1041.9444177553728 61.07041575470979 L 1042.0738558714536 61.170698417315876 L 1042.2010691786036 61.271561187288164 L 1042.3260449555983 61.3729939784337 L 1042.4487707049639 61.47498664755789 L 1042.5692341542278 61.577528995478836 L 1042.6874232571454 61.68061076804718 L 1042.8033261949051 61.78422165717158 L 1042.9169313773098 61.88835130184945 L 1043.0282274439353 61.99298928920311 L 1043.1372032652685 62.09812515552101 L 1043.2438479438174 62.203748387304145 L 1043.3481508152036 62.30984842231735 L 1043.4501014492264 62.416414650645535 L 1043.5496896509076 62.52343641575468 L 1043.64690546151 62.63090301555746 L 1043.7417391595334 62.73880370348344 L 1043.8341812616873 62.847127689553744 L 1043.9242225238381 62.95586414146005 L 1044.011853941935 63.065002185647764 L 1044.0970667529093 63.174530908403426 L 1044.1798524355506 63.28443935694603 L 1044.2602027113596 63.39471654052231 L 1044.338109545376 63.50535143150581 L 1044.413565146981 63.61633296649962 L 1044.4865619706775 63.72765004744274 L 1044.557092716844 63.83929154271982 L 1044.6251503324645 63.951246288274376 L 1044.6907280118342 64.06350308872516 L 1044.7538191972399 64.17605071848564 L 1044.8144175796156 64.28887792288667 L 1044.8725170991734 64.40197341930181 L 1044.92811194601 64.51532589827566 L 1044.9811965606868 64.6289240246548 L 1045.0317656347868 64.74275643872124 L 1045.0798141114446 64.85681175732844 L 1045.1253371858527 64.97107857503958 L 1045.1683303057416 65.08554546526814 L 1045.2087891718347 65.20020098142045 L 1045.2467097382798 65.31503365804045 L 1045.2820882130513 65.43003201195617 L 1045.3149210583315 65.54518454342806 L 1045.3452049908633 65.66047973729893 L 1045.3729369822784 65.77590606414547 L 1045.3981142594007 65.89145198143119 L 1045.4207343045239 66.00710593466063 L 1045.440794855662 66.12285635853486 L 1045.4582939067768 66.23869167810795 L 1045.4732297079775 66.35460030994449 L 1045.4856007656967 66.47057066327784 L 1045.4954058428389 66.58659114116935 L 1045.5026439589044 66.70265014166789 L 1045.507314390088 66.81873605897015 L 1045.5094166693498 66.9348372845811 M 1045.5095469663333 103.91451096179999 L 1045.5082627787447 104.03061462555635 L 1045.5044103443965 104.14670667904309 L 1045.4979900485293 104.2627755131516 L 1045.489002533167 104.37880952109519 L 1045.4774486970537 104.49479709956978 L 1045.4633296955633 104.61072664991414 L 1045.4466469405845 104.72658657926989 L 1045.4274021003787 104.8423653017406 L 1045.4055970994136 104.95805123955054 L 1045.3812341181717 105.0736328242023 L 1045.3543155929303 105.18909849763378 L 1045.3248442155198 105.3044367133738 L 1045.2928229330535 105.41963593769695 L 1045.2582549476324 105.53468465077678 L 1045.2211437160267 105.64957134783783 L 1045.1814929493287 105.76428454030618 L 1045.1393066125818 105.87881275695814 L 1045.0945889243844 105.9931445450675 L 1045.0473443564683 106.10726847155073 L 1044.997577633251 106.22117312411025 L 1044.945293731363 106.33484711237577 L 1044.8904978791513 106.44827906904317 L 1044.8331955561553 106.56145765101131 L 1044.7733924925594 106.67437154051632 L 1044.7110946686203 106.78700944626333 L 1044.6463083140684 106.89936010455563 L 1044.5790399074851 107.01141228042103 L 1044.5092961756554 107.12315476873529 L 1044.4370840928939 107.23457639534273 L 1044.3624108803488 107.34566601817353 L 1044.2852840052792 107.45641252835797 L 1044.2057111803083 107.56680485133734 L 1044.1237003626525 107.67683194797132 L 1044.0392597533248 107.78648281564195 L 1043.952397796316 107.89574648935381 L 1043.8631231777495 108.00461204283062 L 1043.7714448250126 108.1130685896077 L 1043.6773719058644 108.22110528412082 L 1043.5809138275183 108.32871132279051 L 1043.4820802357017 108.4358759451026 L 1043.3808810136914 108.54258843468413 L 1043.2773262813253 108.6488381203751 L 1043.1714263939903 108.75461437729548 L 1043.0631919415869 108.8599066279077 L 1042.9526337474704 108.96470434307447 L 1042.8397628673677 109.0689970431116 L 1042.7245905882728 109.17277429883598 L 1042.607128427318 109.27602573260853 L 1042.4873881306212 109.37874101937192 L 1042.3653816721123 109.48090988768304 L 1042.2411212523355 109.58252212074024 L 1042.1146192972294 109.68356755740487 L 1041.9858884568837 109.78403609321748 L 1041.8549416042756 109.88391768140819 L 1041.7217918339811 109.98320233390143 L 1041.586452460866 110.08188012231469 L 1041.4489370187553 110.17994117895135 L 1041.309259259078 110.27737569778748 L 1041.1674331494944 110.37417393545236 L 1041.0234728724968 110.47032621220293 L 1040.877392823993 110.5658229128916 L 1040.729207611866 110.66065448792793 L 1040.5789320545139 110.7548114542334 L 1040.4265811793668 110.84828439618985 L 1040.2721702213855 110.941063966581 L 1040.1157146215373 111.03314088752711 L 1039.9572300252512 111.12450595141281 L 1039.7967322808554 111.21515002180787 L 1039.6342374379901 111.30506403438078 L 1039.4697617460047 111.39423899780519 L 1039.3033216523309 111.48266599465909 L 1039.1349338008392 111.57033618231648 L 1038.964615030175 111.65724079383165 L 1038.7923823720732 111.74337113881587 L 1038.618253049656 111.82871860430642 L 1038.4422444757104 111.91327465562787 L 1038.2643742509474 111.99703083724555 L 1038.0846601622413 112.07997877361109 L 1037.903120180851 112.16211016999999 L 1037.7197724606233 112.24341681334106 L 1037.5346353361774 112.32389057303769 L 1037.347727321072 112.40352340178099 L 1037.159067105952 112.48230733635444 L 1036.9686735566827 112.56023449843025 L 1036.7765657124594 112.63729709535714 L 1036.5827627839071 112.71348742093964 L 1036.3872841511568 112.78879785620869 L 1036.190149361909 112.8632208701835 L 1035.9913781294783 112.93674902062472 L 1035.7909903308225 113.00937495477855 L 1035.5890060045542 113.08109141011211 L 1035.3854453489378 113.15189121503964 L 1035.1803287198693 113.22176728963963 L 1034.9736766288406 113.29071264636286 L 1034.7655097408888 113.35872039073111 L 1034.5558488725287 113.42578372202661 L 1034.344714989673 113.49189593397213 L 1034.1321292055338 113.55705041540155 L 1033.9181127785123 113.62124065092104 L 1033.702687110073 113.68446022156053 L 1033.485873742603 113.74670280541565 L 1033.2676943572585 113.80796217827987 L 1033.0481707717963 113.86823221426694 L 1032.827324938392 113.92750688642352 L 1032.6051789414448 113.98578026733178 L 1032.3817549953694 114.04304652970217 L 1032.157075442374 114.09929994695618 L 1031.9311627502268 114.15453489379898 L 1031.704039510009 114.20874584678191 L 1031.4757284338548 114.26192738485484 L 1031.246252352682 114.31407418990828 L 1031.0156342139073 114.36518104730519 L 1030.7838970791527 114.4152428464024 L 1030.551064121938 114.46425458106174 L 1030.3171586253654 114.51221135015058 L 1030.0822039797895 114.55910835803196 L 1029.846223680479 114.6049409150442 L 1029.609241325267 114.64970443796976 L 1029.3712806121919 114.69339445049368 L 1029.1323653371264 114.7360065836511 L 1028.892519391399 114.77753657626423 L 1028.6517667594046 114.81798027536838 L 1028.4101315162056 114.85733363662739 L 1028.167637825125 114.8955927247379 L 1027.9243099353298 114.93275371382298 L 1027.6801721794063 114.96881288781469 L 1027.4352489709263 115.0037666408257 L 1027.189564802007 115.03761147750981 L 1026.9431442408604 115.07034401341159 L 1026.6960119293371 115.10196097530469 L 1026.4481925804625 115.13245920151928 L 1026.199710975965 115.16183564225817 L 1025.950591963798 115.19008735990175 L 1025.7008604556547 115.21721152930179 L 1025.4505414244782 115.24320543806398 L 1025.199659901963 115.26806648681908 L 1024.9482409760521 115.29179218948295 L 1024.696309788429 115.31438017350509 L 1024.443891532002 115.33582818010592 L 1024.1910114483867 115.35613406450264 L 1023.9376948253805 115.37529579612375 L 1023.6839669944349 115.39331145881205 L 1023.4298533281212 115.41017925101629 L 1023.1753792375946 115.42589748597129 L 1022.920570170052 115.44046459186667 L 1022.6654516061877 115.45387911200397 L 1022.4100490576457 115.46613970494236 L 1022.1543880644676 115.47724514463276 L 1021.8984941925403 115.48719432054045 L 1021.6423930310372 115.49598623775614 L 1021.3861101898613 115.50362001709544 L 1021.129671297083 115.51009489518677 L 1020.8731019963781 115.5154102245477 L 1020.6164279444625 115.51956547364975 L 1020.359674808528 115.52256022697145 L 1020.1028682636737 115.52439418504 L 1019.8460339903405 115.52506716446106 L 1019.5891976717415 115.52457909793732 L 1019.3323849912946 115.52293003427498 L 1019.0756216300538 115.52012013837903 L 1018.8189332641413 115.51614969123673 L 1018.5623455621796 115.51101908988952 L 1018.3058841827253 115.50472884739318 L 1018.0495747717026 115.4972795927668 L 1017.793442959839 115.48867207092958 L 1017.5375143601021 115.47890714262655 L 1017.2818145651388 115.4679857843424 L 1017.0263691447153 115.45590908820387 L 1016.771203643161 115.4426782618705 L 1016.5163435768133 115.42829462841388 L 1016.2618144314664 115.4127596261854 L 1016.0076416598229 115.39607480867232 L 1015.753850678948 115.3782418443425 L 1015.5004668677283 115.35926251647749 L 1015.2475155643338 115.33913872299428 L 1014.9950220636841 115.31787247625543 L 1014.7430116149188 115.29546590286792 L 1014.4915094188727 115.27192124347039 L 1014.240540625556 115.24724085250918 L 1013.9901303316389 115.2214271980028 L 1013.7403035779417 115.1944828612952 L 1013.4910853469322 115.1664105367976 L 1013.2425005602254 115.13721303171906 L 1012.9945740760928 115.10689326578573 L 1012.7473306869765 115.07545427094897 L 1012.5007951170091 115.04289919108203 L 1012.2549920195424 115.0092312816658 L 1012.0099459746812 114.97445390946316 L 1011.7656814868255 114.93857055218234 L 1011.522222982221 114.90158479812916 L 1011.2795948065151 114.86350034584822 L 1011.037821222323 114.824321003753 L 1010.7969264068018 114.78405068974506 L 1010.5569344492325 114.74269343082224 L 1010.3178693486104 114.70025336267598 L 1010.0797550112468 114.65673472927773 L 1009.8426152483768 114.61214188245454 L 1009.606473773779 114.56647928145395 L 1009.3713542014042 114.51975149249802 L 1009.1372800430137 114.47196318832667 L 1008.9042747058281 114.42311914773052 L 1008.6723614901873 114.37322425507293 L 1008.4415635872192 114.32228349980157 L 1008.2119040765222 114.27030197594954 L 1007.9834059238556 114.21728488162587 L 1007.7560919788443 114.16323751849586 L 1007.5299849726936 114.10816529125074 L 1007.3051075159156 114.05207370706736 L 1007.0814820960685 113.9949683750574 L 1006.8591310755079 113.93685500570646 L 1006.6380766891508 113.87773941030305 L 1006.4183410422513 113.81762750035746 L 1006.1999461081913 113.75652528701059 L 1005.9829137262819 113.69443888043284 L 1005.7672655995807 113.63137448921314 L 1005.5530232927206 113.56733841973806 L 1005.3402082297537 113.5023370755612 L 1005.1288416920088 113.43637695676277 L 1004.9189448159638 113.36946465929971 L 1004.7105385911312 113.301606874346 L 1004.50364385796 113.2328103876236 L 1004.298281305751 113.16308207872383 L 1004.0944714705881 113.0924289204195 L 1003.8922347332854 113.02085797796754 L 1003.6915913173477 112.94837640840255 L 1003.4925612869496 112.8749914598211 L 1003.2951645449283 112.8007104706569 L 1003.0994208307933 112.72554086894695 L 1002.9053497187532 112.64949017158878 L 1002.7129706157572 112.57256598358876 L 1002.5223027595554 112.49477599730159 L 1002.3333652167746 112.41612799166106 L 1002.1461768810115 112.3366298314022 L 1001.9607564709437 112.2562894662748 L 1001.7771225284578 112.1751149302484 L 1001.5952934167949 112.09311434070896 L 1001.4152873187147 112.01029589764713 L 1001.2371222346771 111.92666788283817 L 1001.0608159810419 111.84223865901389 L 1000.8863861882876 111.7570166690263 L 1000.713850299248 111.67101043500338 L 1000.5432255673684 111.58422855749687 L 1000.3745290549797 111.4966797146222 L 1000.2077776315925 111.40837266119071 L 1000.0429879722103 111.31931622783415 L 999.8801765556617 111.22951932012163 L 999.7193596629527 111.13899091766909 L 999.5605533756384 111.04774007324134 L 999.4037735742154 110.9557759118468 L 999.249035936533 110.86310762982494 L 999.0963559362262 110.76974449392677 L 998.9457488411676 110.67569584038806 L 998.7972297119416 110.58097107399578 L 998.6508134003368 110.48557966714766 L 998.5065145478627 110.38953115890487 L 998.3643475842841 110.2928351540382 L 998.2243267261791 110.19550132206757 L 998.0864659755168 110.09753939629505 L 997.9507791182573 109.99895917283158 L 997.8172797229732 109.89977050961737 L 997.6859811394928 109.79998332543607 L 997.5568964975652 109.69960759892295 L 997.4300387055468 109.59865336756702 L 997.3054204491112 109.4971307267073 L 997.1830541899803 109.39504982852324 L 997.0629521646779 109.29242088101961 L 996.9451263833064 109.18925414700563 L 996.8295886283458 109.08555994306874 L 996.7163504534753 108.98134863854291 L 996.6054231824182 108.87663065447177 L 996.4968179078089 108.77141646256644 L 996.3905454900846 108.66571658415843 L 996.2866165563983 108.55954158914753 L 996.1850414995569 108.45290209494473 L 996.0858304769814 108.3458087654106 L 995.9889934096913 108.23827230978884 L 995.8945399813127 108.1303034816354 L 995.8024796371099 108.02191307774314 L 995.7128215830403 107.9131119370621 L 995.6255747848347 107.80391093961568 L 995.5407479671004 107.69432100541265 L 995.4583496124482 107.58435309335508 L 995.378387960645 107.47401820014255 L 995.3008710077895 107.36332735917243 L 995.2258065055122 107.25229163943658 L 995.1532019602008 107.14092214441445 L 995.0830646322495 107.0292300109627 L 995.0154015353323 106.91722640820164 L 994.9502194357029 106.80492253639821 L 994.8875248515167 106.69232962584596 L 994.82732405218 106.57945893574217 L 994.7696230577224 106.46632175306175 L 994.7144276381954 106.35292939142872 L 994.6617433130949 106.23929318998472 L 994.6115753508096 106.12542451225522 L 994.5639287680938 106.0113347450131 L 994.5188083295661 105.89703529714001 L 994.4762185472329 105.78253759848548 L 994.4361636800367 105.66785309872397 L 994.398647733431 105.55299326620987 L 994.3636744589791 105.43796958683073 L 994.3312473539793 105.32279356285864 L 994.3013696611151 105.2074767118 L 994.2740443681311 105.09203056524383 L 994.2492742075335 104.97646666770858 L 994.2270616563179 104.8607965754877 L 994.2074089357209 104.74503185549402 L 994.1903180109982 104.62918408410306 L 994.175790591228 104.51326484599544 L 994.16382812914 104.39728573299836 L 994.1544318209707 104.28125834292646 L 994.147602606343 104.16519427842208 L 994.1433411681726 104.04910514579494 L 994.1416479325998 103.93300255386156" stroke-miterlimit="10" stroke-width="2.990598758" stroke-dasharray=""/></g><g><g/><text fill="black" stroke="none" font-family="sans-serif" font-size="12pt" font-style="normal" font-weight="normal" text-decoration="normal" x="985.5794874123333" y="134.401026536" text-anchor="start" dominant-baseline="alphabetic" xml:space="preserve">Database</text></g><g><path fill="blue" stroke="black" paint-order="fill stroke markers" d=" M 1190.3620486846667 86.79773101159998 A 26.123759739 26.123759739 0 1 1 1190.362035622788 86.77160725621492 M 1136.6192298276667 115.31396975699997 L 1191.8573480636667 115.31396975699997" stroke-miterlimit="10" stroke-width="2.990598758" stroke-dasharray=""/></g><g><g/><text fill="black" stroke="none" font-family="sans-serif" font-size="12pt" font-style="normal" font-weight="normal" text-decoration="normal" x="1111.7734451956667" y="134.401026536" text-anchor="start" dominant-baseline="alphabetic" xml:space="preserve">Partie(modele)</text></g><g><path fill="blue" stroke="black" paint-order="fill stroke markers" d=" M 1423.7394437303333 65.265419954 A 10.027301717999999 10.027301717999999 0 1 1 1423.7394387166828 65.25539265395321 M 1413.7121420123333 75.29272167199998 L 1413.7121420123333 96.75466569999998 M 1401.0460766843332 83.033094928 L 1426.3782073403333 83.033094928 M 1413.7121420123333 96.75466569999998 L 1401.0460766843332 116.80926913599998 M 1413.7121420123333 96.75466569999998 L 1426.3782073403333 116.80926913599998" stroke-miterlimit="10" stroke-width="2.990598758" stroke-dasharray=""/></g><g><g/><text fill="black" stroke="none" font-family="sans-serif" font-size="12pt" font-style="normal" font-weight="normal" text-decoration="normal" x="1389.2512045123333" y="134.401026536" text-anchor="start" dominant-baseline="alphabetic" xml:space="preserve">Joueur</text></g><path fill="none" stroke="none"/><g><path fill="white" stroke="black" paint-order="fill stroke markers" d=" M 1683.4426882999999 92.18080877599999 L 1771.413676858 92.18080877599999 L 1771.413676858 139.67855375599999 L 1683.4426882999999 139.67855375599999 L 1683.4426882999999 92.18080877599999 Z" stroke-miterlimit="10" stroke-width="2.814681184" stroke-dasharray=""/></g><g><g/><text fill="black" stroke="none" font-family="sans-serif" font-size="12pt" font-style="normal" font-weight="normal" text-decoration="normal" x="1702.529745079" y="122.08679635600001" text-anchor="start" dominant-baseline="alphabetic" xml:space="preserve">Persos</text></g></g><g><g><g><rect fill="white" stroke="none" x="84.26625465233333" y="174.86206855599997" width="181.39471472" height="22.86928462"/></g><text fill="black" stroke="none" font-family="sans-serif" font-size="12pt" font-style="normal" font-weight="normal" text-decoration="normal" x="86.90501826233333" y="190.69465021599999" text-anchor="start" dominant-baseline="alphabetic" xml:space="preserve">Button-1 sur personnage</text></g><g><path fill="none" stroke="black" paint-order="fill stroke markers" d=" M 63.449341729 197.73135317599997 L 271.9940020363333 197.73135317599997" stroke-miterlimit="10" stroke-width="1.4659797833333332" stroke-dasharray=""/><g transform="translate(286.47788229566663,197.73135317599997) translate(-286.47788229566663,-197.73135317599997)"><path fill="black" stroke="none" paint-order="stroke fill markers" d=" M 271.8180844623333 190.4014542593333 L 286.47788229566663 197.73135317599997 L 271.8180844623333 205.06125209266665 Z"/></g></g><g><g><rect fill="white" stroke="none" x="307.294795219" y="224.11898927599998" width="134.20721472" height="22.86928462"/></g><text fill="black" stroke="none" font-family="sans-serif" font-size="12pt" font-style="normal" font-weight="normal" text-decoration="normal" x="309.933558829" y="239.951570936" text-anchor="start" dominant-baseline="alphabetic" xml:space="preserve">creer_cadres (init)</text></g><g><path fill="none" stroke="black" paint-order="fill stroke markers" d=" M 286.47788229566663 246.98827389599998 L 356.84491189566666 246.98827389599998 L 356.84491189566666 269.857558516 L 300.96176255499995 269.857558516" stroke-miterlimit="10" stroke-width="1.4659797833333332" stroke-dasharray=""/><g transform="translate(286.47788229566663,269.857558516) translate(-286.47788229566663,-269.857558516)"><path fill="black" stroke="none" paint-order="stroke fill markers" d=" M 301.137680129 262.52765959933333 L 286.47788229566663 269.857558516 L 301.137680129 277.18745743266663 Z"/></g></g><g><g><rect fill="white" stroke="none" x="307.294795219" y="296.245194616" width="120.90252722" height="22.86928462"/></g><text fill="black" stroke="none" font-family="sans-serif" font-size="12pt" font-style="normal" font-weight="normal" text-decoration="normal" x="309.933558829" y="312.077776276" text-anchor="start" dominant-baseline="alphabetic" xml:space="preserve">creer_cadre_jeu</text></g><g><path fill="none" stroke="black" paint-order="fill stroke markers" d=" M 286.47788229566663 319.114479236 L 356.84491189566666 319.114479236 L 356.84491189566666 341.983763856 L 300.96176255499995 341.983763856" stroke-miterlimit="10" stroke-width="1.4659797833333332" stroke-dasharray=""/><g transform="translate(286.47788229566663,341.983763856) translate(-286.47788229566663,-341.983763856)"><path fill="black" stroke="none" paint-order="stroke fill markers" d=" M 301.137680129 334.65386493933335 L 286.47788229566663 341.983763856 L 301.137680129 349.31366277266665 Z"/></g></g><g><g><rect fill="white" stroke="none" x="307.294795219" y="368.371399956" width="118.21502722" height="22.86928462"/></g><text fill="black" stroke="none" font-family="sans-serif" font-size="12pt" font-style="normal" font-weight="normal" text-decoration="normal" x="309.933558829" y="384.203981616" text-anchor="start" dominant-baseline="alphabetic" xml:space="preserve">creer_aire_jeu()</text></g><g><path fill="none" stroke="black" paint-order="fill stroke markers" d=" M 286.47788229566663 391.24068457600004 L 356.84491189566666 391.24068457600004 L 356.84491189566666 414.109969196 L 300.96176255499995 414.109969196" stroke-miterlimit="10" stroke-width="1.4659797833333332" stroke-dasharray=""/><g transform="translate(286.47788229566663,414.109969196) translate(-286.47788229566663,-414.109969196)"><path fill="black" stroke="none" paint-order="stroke fill markers" d=" M 301.137680129 406.78007027933336 L 286.47788229566663 414.109969196 L 301.137680129 421.43986811266666 Z"/></g></g><g><g><rect fill="white" stroke="none" x="307.294795219" y="440.497605296" width="134.23846472" height="22.86928462"/></g><text fill="black" stroke="none" font-family="sans-serif" font-size="12pt" font-style="normal" font-weight="normal" text-decoration="normal" x="309.933558829" y="456.33018695600003" text-anchor="start" dominant-baseline="alphabetic" xml:space="preserve">connecter_event()</text></g><g><path fill="none" stroke="black" paint-order="fill stroke markers" d=" M 286.47788229566663 463.36688991600005 L 356.84491189566666 463.36688991600005 L 356.84491189566666 486.236174536 L 300.96176255499995 486.236174536" stroke-miterlimit="10" stroke-width="1.4659797833333332" stroke-dasharray=""/><g transform="translate(286.47788229566663,486.236174536) translate(-286.47788229566663,-486.236174536)"><path fill="black" stroke="none" paint-order="stroke fill markers" d=" M 301.137680129 478.90627561933337 L 286.47788229566663 486.236174536 L 301.137680129 493.56607345266667 Z"/></g></g><g><g><rect fill="white" stroke="none" x="307.294795219" y="512.623810636" width="194.53533972" height="22.86928462"/></g><g><rect fill="white" stroke="none" x="307.294795219" y="530.215568036" width="180.46502722" height="22.86928462"/></g><text fill="black" stroke="none" font-family="sans-serif" font-size="12pt" font-style="normal" font-weight="normal" text-decoration="normal" x="309.933558829" y="528.456392296" text-anchor="start" dominant-baseline="alphabetic" xml:space="preserve">"canvas.bind &lt;Button-3&gt;", </text><text fill="black" stroke="none" font-family="sans-serif" font-size="12pt" font-style="normal" font-weight="normal" text-decoration="normal" x="309.933558829" y="546.048149696" text-anchor="start" dominant-baseline="alphabetic" xml:space="preserve">self.construire_batiment)</text></g><g><path fill="none" stroke="black" paint-order="fill stroke markers" d=" M 286.47788229566663 553.084852656 L 356.84491189566666 553.084852656 L 356.84491189566666 575.954137276 L 300.96176255499995 575.954137276" stroke-miterlimit="10" stroke-width="1.4659797833333332" stroke-dasharray=""/><g transform="translate(286.47788229566663,575.954137276) translate(-286.47788229566663,-575.954137276)"><path fill="black" stroke="none" paint-order="stroke fill markers" d=" M 301.137680129 568.6242383593333 L 286.47788229566663 575.954137276 L 301.137680129 583.2840361926667 Z"/></g></g><g><g><rect fill="white" stroke="none" x="132.73891090233332" y="602.341773376" width="84.44940222" height="22.86928462"/></g><text fill="black" stroke="none" font-family="sans-serif" font-size="12pt" font-style="normal" font-weight="normal" text-decoration="normal" x="135.37767451233333" y="618.174355036" text-anchor="start" dominant-baseline="alphabetic" xml:space="preserve">&lt;Button-3&gt;</text></g><g><path fill="none" stroke="black" paint-order="fill stroke markers" d=" M 63.449341729 625.211057996 L 271.9940020363333 625.211057996" stroke-miterlimit="10" stroke-width="1.4659797833333332" stroke-dasharray=""/><g transform="translate(286.47788229566663,625.211057996) translate(-286.47788229566663,-625.211057996)"><path fill="black" stroke="none" paint-order="stroke fill markers" d=" M 271.8180844623333 617.8811590793333 L 286.47788229566663 625.211057996 L 271.8180844623333 632.5409569126667 Z"/></g></g><g><g><rect fill="white" stroke="none" x="322.1133338023333" y="651.598694096" width="150.23846472" height="22.86928462"/></g><text fill="black" stroke="none" font-family="sans-serif" font-size="12pt" font-style="normal" font-weight="normal" text-decoration="normal" x="324.7520974123333" y="667.431275756" text-anchor="start" dominant-baseline="alphabetic" xml:space="preserve">construire_batiment </text></g><g><path fill="none" stroke="black" paint-order="fill stroke markers" d=" M 286.47788229566663 674.4679787160001 L 493.5033697696666 674.4679787160001" stroke-miterlimit="10" stroke-width="1.4659797833333332" stroke-dasharray=""/><g transform="translate(507.98725002899994,674.4679787160001) translate(-507.98725002899994,-674.4679787160001)"><path fill="black" stroke="none" paint-order="stroke fill markers" d=" M 493.3274521956666 667.1380797993334 L 507.98725002899994 674.4679787160001 L 493.3274521956666 681.7978776326668 Z"/></g></g><g><g><rect fill="white" stroke="none" x="528.8041629523333" y="700.855614816" width="150.23846472" height="22.86928462"/></g><g><rect fill="white" stroke="none" x="528.8041629523333" y="718.447372216" width="252.55877722" height="22.86928462"/></g><text fill="black" stroke="none" font-family="sans-serif" font-size="12pt" font-style="normal" font-weight="normal" text-decoration="normal" x="531.4429265623332" y="716.6881964759999" text-anchor="start" dominant-baseline="alphabetic" xml:space="preserve">construire_batiment:</text><text fill="black" stroke="none" font-family="sans-serif" font-size="12pt" font-style="normal" font-weight="normal" text-decoration="normal" x="531.4429265623332" y="734.2799538759999" text-anchor="start" dominant-baseline="alphabetic" xml:space="preserve">append action a []actions_requises</text></g><g><path fill="none" stroke="black" paint-order="fill stroke markers" d=" M 507.98725002899994 741.316656836 L 787.6959728363333 741.316656836" stroke-miterlimit="10" stroke-width="1.4659797833333332" stroke-dasharray=""/><g transform="translate(802.1798530956667,741.316656836) translate(-802.1798530956667,-741.316656836)"><path fill="black" stroke="none" paint-order="stroke fill markers" d=" M 787.5200552623334 733.9867579193333 L 802.1798530956667 741.316656836 L 787.5200552623334 748.6465557526667 Z"/></g></g><g><g><rect fill="white" stroke="none" x="822.996766019" y="767.704292936" width="129.78533972" height="22.86928462"/></g><g><rect fill="white" stroke="none" x="822.996766019" y="785.296050336" width="18.61346472" height="22.86928462"/></g><text fill="black" stroke="none" font-family="sans-serif" font-size="12pt" font-style="normal" font-weight="normal" text-decoration="normal" x="825.635529629" y="783.536874596" text-anchor="start" dominant-baseline="alphabetic" xml:space="preserve">boucler_sur_jeu()</text><text fill="black" stroke="none" font-family="sans-serif" font-size="12pt" font-style="normal" font-weight="normal" text-decoration="normal" x="825.635529629" y="801.128631996" text-anchor="start" dominant-baseline="alphabetic" xml:space="preserve">...</text></g><g><path fill="none" stroke="black" paint-order="fill stroke markers" d=" M 802.1798530956667 808.1653349559999 L 872.5468826956667 808.1653349559999 L 872.5468826956667 831.034619576 L 816.663733355 831.034619576" stroke-miterlimit="10" stroke-width="1.4659797833333332" stroke-dasharray=""/><g transform="translate(802.1798530956667,831.034619576) translate(-802.1798530956667,-831.034619576)"><path fill="black" stroke="none" paint-order="stroke fill markers" d=" M 816.839650929 823.7047206593332 L 802.1798530956667 831.034619576 L 816.839650929 838.3645184926667 Z"/></g></g><path fill="white" stroke="black" paint-order="fill stroke markers" d=" M 665.5006114856667 857.422255676 L 923.0265130456667 857.422255676 L 938.8590947056666 873.2548373359999 L 938.8590947056666 897.883297696 L 665.5006114856667 897.883297696 L 665.5006114856667 857.422255676 M 923.0265130456667 857.422255676 L 923.0265130456667 873.2548373359999 L 938.8590947056666 873.2548373359999" stroke-miterlimit="10" stroke-width="1.4659797833333332" stroke-dasharray=""/><g><text fill="black" stroke="none" font-family="sans-serif" font-size="12pt" font-style="normal" font-weight="normal" text-decoration="normal" x="690.1290718456667" y="882.050716036" text-anchor="start" dominant-baseline="alphabetic" xml:space="preserve">recursivité de boucler_sur_jeu()</text></g><g><g><rect fill="white" stroke="none" x="822.996766019" y="924.2709337959999" width="147.56658972" height="22.86928462"/></g><g><rect fill="white" stroke="none" x="822.996766019" y="941.8626911959999" width="176.01190222" height="22.86928462"/></g><text fill="black" stroke="none" font-family="sans-serif" font-size="12pt" font-style="normal" font-weight="normal" text-decoration="normal" x="825.635529629" y="940.1035154559999" text-anchor="start" dominant-baseline="alphabetic" xml:space="preserve">try: appeler_serveur</text><text fill="black" stroke="none" font-family="sans-serif" font-size="12pt" font-style="normal" font-weight="normal" text-decoration="normal" x="825.635529629" y="957.6952728559999" text-anchor="start" dominant-baseline="alphabetic" xml:space="preserve">(... actions_requises ... )</text></g><g><path fill="none" stroke="black" paint-order="fill stroke markers" d=" M 802.1798530956667 964.7319758159999 L 1005.341700903 964.7319758159999" stroke-miterlimit="10" stroke-width="1.4659797833333332" stroke-dasharray=""/><g transform="translate(1019.8255811623333,964.7319758159999) translate(-1019.8255811623333,-964.7319758159999)"><path fill="black" stroke="none" paint-order="stroke fill markers" d=" M 1005.165783329 957.4020768993332 L 1019.8255811623333 964.7319758159999 L 1005.165783329 972.0618747326666 Z"/></g></g><g><g><rect fill="white" stroke="none" x="846.507986619" y="991.1196119159998" width="137.78533972" height="22.86928462"/></g><g><rect fill="white" stroke="none" x="846.507986619" y="1008.7113693159998" width="80.46502722" height="22.86928462"/></g><g><rect fill="white" stroke="none" x="846.507986619" y="1026.3031267159997" width="135.10565222" height="22.86928462"/></g><text fill="black" stroke="none" font-family="sans-serif" font-size="12pt" font-style="normal" font-weight="normal" text-decoration="normal" x="849.146750229" y="1006.9521935759998" text-anchor="start" dominant-baseline="alphabetic" xml:space="preserve">an error ocurred: e</text><text fill="black" stroke="none" font-family="sans-serif" font-size="12pt" font-style="normal" font-weight="normal" text-decoration="normal" x="849.146750229" y="1024.5439509759997" text-anchor="start" dominant-baseline="alphabetic" xml:space="preserve">on_joue=0</text><text fill="black" stroke="none" font-family="sans-serif" font-size="12pt" font-style="normal" font-weight="normal" text-decoration="normal" x="849.146750229" y="1042.1357083759997" text-anchor="start" dominant-baseline="alphabetic" xml:space="preserve">(notre tour est fini)</text></g><g><path fill="none" stroke="red" paint-order="fill stroke markers" d=" M 1019.8255811623333 1049.1724113359999 L 819.7716104956667 1049.1724113359999" stroke-miterlimit="10" stroke-width="1.4659797833333332" stroke-dasharray=""/><path fill="none" stroke="red" paint-order="fill stroke markers" d=" M 810.9757317956667 1040.3765326359999 L 828.5674891956667 1057.9682900359999 M 810.9757317956667 1057.9682900359999 L 828.5674891956667 1040.3765326359999" stroke-miterlimit="10" stroke-width="1.4659797833333332"/></g><g><g><rect fill="white" stroke="none" x="863.625672269" y="1075.5600474359999" width="94.75408972" height="22.86928462"/></g><text fill="black" stroke="none" font-family="sans-serif" font-size="12pt" font-style="normal" font-weight="normal" text-decoration="normal" x="866.264435879" y="1091.3926290959998" text-anchor="start" dominant-baseline="alphabetic" xml:space="preserve">ATTENTION</text></g><g><path fill="none" stroke="black" paint-order="fill stroke markers" d=" M 1019.8255811623333 1098.4293320559998 L 816.663733355 1098.4293320559998" stroke-miterlimit="10" stroke-width="1.4659797833333332" stroke-dasharray="7.0367029599999995"/><g transform="translate(802.1798530956667,1098.4293320559998) translate(-802.1798530956667,-1098.4293320559998)"><path fill="black" stroke="none" paint-order="stroke fill markers" d=" M 816.839650929 1091.099433139333 L 802.1798530956667 1098.4293320559998 L 816.839650929 1105.7592309726665 Z"/></g></g><g><g><rect fill="white" stroke="none" x="822.996766019" y="1124.8169681559998" width="148.03533972" height="22.86928462"/></g><text fill="black" stroke="none" font-family="sans-serif" font-size="12pt" font-style="normal" font-weight="normal" text-decoration="normal" x="825.635529629" y="1140.6495498159998" text-anchor="start" dominant-baseline="alphabetic" xml:space="preserve">on_joue=0 (tour fini)</text></g><g><path fill="none" stroke="black" paint-order="fill stroke markers" d=" M 802.1798530956667 1147.686252776 L 872.5468826956667 1147.686252776 L 872.5468826956667 1170.5555373959999 L 816.663733355 1170.5555373959999" stroke-miterlimit="10" stroke-width="1.4659797833333332" stroke-dasharray=""/><g transform="translate(802.1798530956667,1170.5555373959999) translate(-802.1798530956667,-1170.5555373959999)"><path fill="black" stroke="none" paint-order="stroke fill markers" d=" M 816.839650929 1163.2256384793332 L 802.1798530956667 1170.5555373959999 L 816.839650929 1177.8854363126666 Z"/></g></g><path fill="white" stroke="black" paint-order="fill stroke markers" d=" M 729.5435802356667 1196.9431734959999 L 858.9835442956668 1196.9431734959999 L 874.8161259556667 1212.7757551559998 L 874.8161259556667 1237.4042155159998 L 729.5435802356667 1237.4042155159998 L 729.5435802356667 1196.9431734959999 M 858.9835442956668 1196.9431734959999 L 858.9835442956668 1212.7757551559998 L 874.8161259556667 1212.7757551559998" stroke-miterlimit="10" stroke-width="1.4659797833333332" stroke-dasharray=""/><g><text fill="black" stroke="none" font-family="sans-serif" font-size="12pt" font-style="normal" font-weight="normal" text-decoration="normal" x="754.1720405956667" y="1221.5716338559996" text-anchor="start" dominant-baseline="alphabetic" xml:space="preserve">si try marche:</text></g><g><g><rect fill="white" stroke="none" x="881.684266019" y="1263.7918516159998" width="58.636902219999996" height="22.86928462"/></g><text fill="black" stroke="none" font-family="sans-serif" font-size="12pt" font-style="normal" font-weight="normal" text-decoration="normal" x="884.323029629" y="1279.6244332759998" text-anchor="start" dominant-baseline="alphabetic" xml:space="preserve">{JSON}</text></g><g><path fill="none" stroke="black" paint-order="fill stroke markers" d=" M 1019.8255811623333 1286.6611362359997 L 816.663733355 1286.6611362359997" stroke-miterlimit="10" stroke-width="1.4659797833333332" stroke-dasharray="7.0367029599999995"/><g transform="translate(802.1798530956667,1286.6611362359997) translate(-802.1798530956667,-1286.6611362359997)"><path fill="black" stroke="none" paint-order="stroke fill markers" d=" M 816.839650929 1279.331237319333 L 802.1798530956667 1286.6611362359997 L 816.839650929 1293.9910351526664 Z"/></g></g><g><g><rect fill="white" stroke="none" x="859.6132761606667" y="1313.0487723359997" width="5.27752722" height="22.86928462"/></g><g><rect fill="white" stroke="none" x="859.6132761606667" y="1330.6405297359997" width="141.79315222" height="22.86928462"/></g><g><rect fill="white" stroke="none" x="859.6132761606667" y="1348.2322871359997" width="247.19158972" height="22.86928462"/></g><text fill="black" stroke="none" font-family="sans-serif" font-size="12pt" font-style="normal" font-weight="normal" text-decoration="normal" x="862.2520397706667" y="1328.8813539959997" text-anchor="start" dominant-baseline="alphabetic" xml:space="preserve"></text><text fill="black" stroke="none" font-family="sans-serif" font-size="12pt" font-style="normal" font-weight="normal" text-decoration="normal" x="862.2520397706667" y="1346.4731113959997" text-anchor="start" dominant-baseline="alphabetic" xml:space="preserve">mon_dict = JSON{}</text><text fill="black" stroke="none" font-family="sans-serif" font-size="12pt" font-style="normal" font-weight="normal" text-decoration="normal" x="862.2520397706667" y="1364.0648687959997" text-anchor="start" dominant-baseline="alphabetic" xml:space="preserve">ajouter_actions_a_faire(mon_dict)</text></g><g><path fill="none" stroke="black" paint-order="fill stroke markers" d=" M 802.1798530956667 1371.1015717559997 L 1149.7544086863334 1371.1015717559997" stroke-miterlimit="10" stroke-width="1.4659797833333332" stroke-dasharray=""/><g transform="translate(1164.2382889456667,1371.1015717559997) translate(-1164.2382889456667,-1371.1015717559997)"><path fill="black" stroke="none" paint-order="stroke fill markers" d=" M 1149.5784911123333 1363.771672839333 L 1164.2382889456667 1371.1015717559997 L 1149.5784911123333 1378.4314706726664 Z"/></g></g><g><g><rect fill="white" stroke="none" x="1185.055201869" y="1397.4892078559997" width="147.58221472" height="22.86928462"/></g><text fill="black" stroke="none" font-family="sans-serif" font-size="12pt" font-style="normal" font-weight="normal" text-decoration="normal" x="1187.693965479" y="1413.3217895159996" text-anchor="start" dominant-baseline="alphabetic" xml:space="preserve">self.actions_a_faire:</text></g><g><path fill="none" stroke="black" paint-order="fill stroke markers" d=" M 1164.2382889456667 1420.3584924759998 L 1234.6053185456667 1420.3584924759998 L 1234.6053185456667 1443.2277770959997 L 1178.722169205 1443.2277770959997" stroke-miterlimit="10" stroke-width="1.4659797833333332" stroke-dasharray=""/><g transform="translate(1164.2382889456667,1443.2277770959997) translate(-1164.2382889456667,-1443.2277770959997)"><path fill="black" stroke="none" paint-order="stroke fill markers" d=" M 1178.898086779 1435.897878179333 L 1164.2382889456667 1443.2277770959997 L 1178.898086779 1450.5576760126664 Z"/></g></g><path fill="white" stroke="black" paint-order="fill stroke markers" d=" M 1047.9887348356667 1469.6154131959997 L 1264.6552613956667 1469.6154131959997 L 1280.4878430556666 1485.4479948559997 L 1280.4878430556666 1510.0764552159997 L 1047.9887348356667 1510.0764552159997 L 1047.9887348356667 1469.6154131959997 M 1264.6552613956667 1469.6154131959997 L 1264.6552613956667 1485.4479948559997 L 1280.4878430556666 1485.4479948559997" stroke-miterlimit="10" stroke-width="1.4659797833333332" stroke-dasharray=""/><g><text fill="black" stroke="none" font-family="sans-serif" font-size="12pt" font-style="normal" font-weight="normal" text-decoration="normal" x="1072.6171951956667" y="1494.2438735559995" text-anchor="start" dominant-baseline="alphabetic" xml:space="preserve">append actions courantes</text></g><g><g><rect fill="white" stroke="none" x="905.8476511606667" y="1536.4640913159997" width="154.72283972" height="22.86928462"/></g><text fill="black" stroke="none" font-family="sans-serif" font-size="12pt" font-style="normal" font-weight="normal" text-decoration="normal" x="908.4864147706667" y="1552.2966729759996" text-anchor="start" dominant-baseline="alphabetic" xml:space="preserve">jouer_prochain_coup</text></g><g><path fill="none" stroke="black" paint-order="fill stroke markers" d=" M 802.1798530956667 1559.3333759359996 L 1149.7544086863334 1559.3333759359996" stroke-miterlimit="10" stroke-width="1.4659797833333332" stroke-dasharray=""/><g transform="translate(1164.2382889456667,1559.3333759359996) translate(-1164.2382889456667,-1559.3333759359996)"><path fill="black" stroke="none" paint-order="stroke fill markers" d=" M 1149.5784911123333 1552.0034770193329 L 1164.2382889456667 1559.3333759359996 L 1149.5784911123333 1566.6632748526663 Z"/></g></g><g><g><rect fill="white" stroke="none" x="1185.0552018689998" y="1585.7210120359996" width="207.84002722" height="22.86928462"/></g><text fill="black" stroke="none" font-family="sans-serif" font-size="12pt" font-style="normal" font-weight="normal" text-decoration="normal" x="1187.6939654789999" y="1601.5535936959996" text-anchor="start" dominant-baseline="alphabetic" xml:space="preserve">actions: "construirebatiment"</text></g><g><path fill="none" stroke="black" paint-order="fill stroke markers" d=" M 1164.2382889456667 1608.5902966559995 L 1399.228261753 1608.5902966559995" stroke-miterlimit="10" stroke-width="1.4659797833333332" stroke-dasharray=""/><g transform="translate(1413.7121420123333,1608.5902966559995) translate(-1413.7121420123333,-1608.5902966559995)"><path fill="black" stroke="none" paint-order="stroke fill markers" d=" M 1399.0523441789999 1601.2603977393328 L 1413.7121420123333 1608.5902966559995 L 1399.0523441789999 1615.9201955726662 Z"/></g></g><path fill="white" stroke="black" paint-order="fill stroke markers" d=" M 1301.9313379023333 1634.9779327559995 L 1509.6603644623333 1634.9779327559995 L 1525.4929461223333 1650.8105144159995 L 1525.4929461223333 1675.4389747759994 L 1301.9313379023333 1675.4389747759994 L 1301.9313379023333 1634.9779327559995 M 1509.6603644623333 1634.9779327559995 L 1509.6603644623333 1650.8105144159995 L 1525.4929461223333 1650.8105144159995" stroke-miterlimit="10" stroke-width="1.4659797833333332" stroke-dasharray=""/><g><text fill="black" stroke="none" font-family="sans-serif" font-size="12pt" font-style="normal" font-weight="normal" text-decoration="normal" x="1326.5597982623333" y="1659.6063931159993" text-anchor="start" dominant-baseline="alphabetic" xml:space="preserve">self.construire_batiment </text></g><path fill="white" stroke="black" paint-order="fill stroke markers" d=" M 1325.0602441523333 1701.8266108759994 L 1486.5314582123333 1701.8266108759994 L 1502.3640398723333 1717.6591925359994 L 1502.3640398723333 1742.2876528959994 L 1325.0602441523333 1742.2876528959994 L 1325.0602441523333 1701.8266108759994 M 1486.5314582123333 1701.8266108759994 L 1486.5314582123333 1717.6591925359994 L 1502.3640398723333 1717.6591925359994" stroke-miterlimit="10" stroke-width="1.4659797833333332" stroke-dasharray=""/><g><text fill="black" stroke="none" font-family="sans-serif" font-size="12pt" font-style="normal" font-weight="normal" text-decoration="normal" x="1349.6887045123333" y="1726.4550712359992" text-anchor="start" dominant-baseline="alphabetic" xml:space="preserve">SiteConstruction()</text></g><g><g><rect fill="white" stroke="none" x="1206.2856706189998" y="1768.6752889959994" width="165.37908972" height="22.86928462"/></g><text fill="black" stroke="none" font-family="sans-serif" font-size="12pt" font-style="normal" font-weight="normal" text-decoration="normal" x="1208.9244342289999" y="1784.5078706559993" text-anchor="start" dominant-baseline="alphabetic" xml:space="preserve">jouer_prochain_coup()</text></g><g><path fill="none" stroke="black" paint-order="fill stroke markers" d=" M 1164.2382889456667 1791.5445736159993 L 1399.228261753 1791.5445736159993" stroke-miterlimit="10" stroke-width="1.4659797833333332" stroke-dasharray=""/><g transform="translate(1413.7121420123333,1791.5445736159993) translate(-1413.7121420123333,-1791.5445736159993)"><path fill="black" stroke="none" paint-order="stroke fill markers" d=" M 1399.0523441789999 1784.2146746993326 L 1413.7121420123333 1791.5445736159993 L 1399.0523441789999 1798.874472532666 Z"/></g></g><g><g><rect fill="white" stroke="none" x="1434.5290549356666" y="1817.9322097159993" width="272.08221472" height="22.86928462"/></g><text fill="black" stroke="none" font-family="sans-serif" font-size="12pt" font-style="normal" font-weight="normal" text-decoration="normal" x="1437.1678185456667" y="1833.7647913759993" text-anchor="start" dominant-baseline="alphabetic" xml:space="preserve">self.persos[j][i].jouer_prochain_coup()</text></g><g><path fill="none" stroke="black" paint-order="fill stroke markers" d=" M 1413.7121420123333 1840.8014943359992 L 1712.9443023196666 1840.8014943359992" stroke-miterlimit="10" stroke-width="1.4659797833333332" stroke-dasharray=""/><g transform="translate(1727.428182579,1840.8014943359992) translate(-1727.428182579,-1840.8014943359992)"><path fill="black" stroke="none" paint-order="stroke fill markers" d=" M 1712.7683847456665 1833.4715954193325 L 1727.428182579 1840.8014943359992 L 1712.7683847456665 1848.131393252666 Z"/></g></g><path fill="white" stroke="black" paint-order="fill stroke markers" d=" M 1549.260659719 1867.1891304359992 L 1889.763123779 1867.1891304359992 L 1905.5957054389999 1883.0217120959992 L 1905.5957054389999 1907.6501724559992 L 1549.260659719 1907.6501724559992 L 1549.260659719 1867.1891304359992 M 1889.763123779 1867.1891304359992 L 1889.763123779 1883.0217120959992 L 1905.5957054389999 1883.0217120959992" stroke-miterlimit="10" stroke-width="1.4659797833333332" stroke-dasharray=""/><g><text fill="black" stroke="none" font-family="sans-serif" font-size="12pt" font-style="normal" font-weight="normal" text-decoration="normal" x="1573.889120079" y="1891.817590795999" text-anchor="start" dominant-baseline="alphabetic" xml:space="preserve">self.etats_et_actions = "construirebatiment"</text></g><path fill="white" stroke="black" paint-order="fill stroke markers" d=" M 1612.541909719 1934.0378085559992 L 1826.481873779 1934.0378085559992 L 1842.3144554389999 1949.8703902159991 L 1842.3144554389999 1974.498850575999 L 1612.541909719 1974.498850575999 L 1612.541909719 1934.0378085559992 M 1826.481873779 1934.0378085559992 L 1826.481873779 1949.8703902159991 L 1842.3144554389999 1949.8703902159991" stroke-miterlimit="10" stroke-width="1.4659797833333332" stroke-dasharray=""/><g><text fill="black" stroke="none" font-family="sans-serif" font-size="12pt" font-style="normal" font-weight="normal" text-decoration="normal" x="1637.170370079" y="1958.666268915999" text-anchor="start" dominant-baseline="alphabetic" xml:space="preserve">self.construire_batiment()</text></g><path fill="white" stroke="black" paint-order="fill stroke markers" d=" M 1053.7895160856667 2000.8864866759993 L 1258.8544801456667 2000.8864866759993 L 1274.6870618056666 2016.7190683359993 L 1274.6870618056666 2058.9392860959993 L 1053.7895160856667 2058.9392860959993 L 1053.7895160856667 2000.8864866759993 M 1258.8544801456667 2000.8864866759993 L 1258.8544801456667 2016.7190683359993 L 1274.6870618056666 2016.7190683359993" stroke-miterlimit="10" stroke-width="1.4659797833333332" stroke-dasharray=""/><g><text fill="black" stroke="none" font-family="sans-serif" font-size="12pt" font-style="normal" font-weight="normal" text-decoration="normal" x="1078.4179764456667" y="2025.514947035999" text-anchor="start" dominant-baseline="alphabetic" xml:space="preserve">self.faire_action_partie()</text><text fill="black" stroke="none" font-family="sans-serif" font-size="12pt" font-style="normal" font-weight="normal" text-decoration="normal" x="1078.4179764456667" y="2043.106704435999" text-anchor="start" dominant-baseline="alphabetic" xml:space="preserve">produire_action()</text></g><g><g><rect fill="white" stroke="none" x="495.14713533566663" y="2085.326922195999" width="98.36346472" height="22.86928462"/></g><text fill="black" stroke="none" font-family="sans-serif" font-size="12pt" font-style="normal" font-weight="normal" text-decoration="normal" x="497.78589894566664" y="2101.159503855999" text-anchor="start" dominant-baseline="alphabetic" xml:space="preserve">afficher_jeu()</text></g><g><path fill="none" stroke="black" paint-order="fill stroke markers" d=" M 802.1798530956667 2108.196206815999 L 300.96176255499995 2108.196206815999" stroke-miterlimit="10" stroke-width="1.4659797833333332" stroke-dasharray=""/><g transform="translate(286.47788229566663,2108.196206815999) translate(-286.47788229566663,-2108.196206815999)"><path fill="black" stroke="none" paint-order="stroke fill markers" d=" M 301.137680129 2100.8663078993327 L 286.47788229566663 2108.196206815999 L 301.137680129 2115.5261057326657 Z"/></g></g></g><g/><g/><g/><g/><g/><g/><g/><g/></g></svg>